<?xml version="1.0" encoding="UTF-8"?>
<svg id="Layer_1" data-name="Layer 1" xmlns="http://www.w3.org/2000/svg" version="1.1" viewBox="0 0 200 57.7">
  <defs>
    <style>
      .cls-1 {
        font-family: SFProText-Light, 'SF Pro Text';
        font-size: 20px;
        font-weight: 300;
        isolation: isolate;
      }

      .cls-1, .cls-2 {
        fill: #fff;
      }

      .cls-3 {
        display: none;
        fill: #000;
      }

      .cls-3, .cls-2 {
        stroke-width: 0px;
      }
    </style>
  </defs>
  <rect class="cls-3" width="200" height="57.7"/>
  <path class="cls-2" d="M166,17.3l1.8,1.8s3.5-3.9,7.3-.8c.9-1.1,2-2.6,3.6-4.3-1.9.6-6.4-1.4-6.4-1.4l-6.3,4.7h0Z"/>
  <path class="cls-2" d="M172.9,21.4s-.2.9.4,2.2l-2.6,3.5,2.8-1.8-3.5,4.4,4.5-3.3-1.9,2.5,3.7-2.4c1.2.6,2.1.4,2.1.4,0,0,1-.6,2.9-2,3.3,3.8-.7,7.4-.8,7.3l1.8,1.8,4.8-6.2s-2.4-5.1-1.3-6.7c1.4-1.3,3.1-2.8,4.9-4.7C197.4,9.8,199.7-.1,199.7-.1c0,0-9.9,2.3-16.5,8.9-1.9,1.9-3.5,3.6-4.8,5.1-1.5,1.7-2.7,3.1-3.6,4.3-1.5,2-2.2,3.1-2.2,3.1h.3ZM186.7,9.4c1.1-1.1,2.8-1.1,3.8,0s1.1,2.8,0,3.8-2.8,1.1-3.8,0c-.5-.5-.8-1.2-.8-1.9s.3-1.4.8-1.9h0ZM176.9,19l-.7-.2.6-.4v-.8l.6.5.7-.2-.2.7.5.6h-.8l-.4.6-.2-.7h-.1ZM181,21.8l.6.5.7-.2-.2.7.5.6h-.8l-.4.6-.2-.7-.7-.2.6-.4v-.8h-.1ZM180.1,22.4h-1.2l-.7.9-.3-1.1-1.1-.3.9-.7v-1.1l.9.7,1.1-.4-.4,1.1.7.9h.1Z"/>
  <path class="cls-2" d="M16.7,19.6c1-1.3,1.5-3,1.5-4.8s-.8-4.3-2.3-5.7c-1.6-1.4-3.6-2.1-6.3-2.1H0v26.7h2.5v-10.9h7.3l6.2,10.9h3l-6.5-11.4c1.8-.5,3.2-1.4,4.2-2.7ZM9.4,20.5H2.5v-11.3h6.8c2,0,3.5.5,4.6,1.5s1.7,2.4,1.7,4.1-.5,3.2-1.6,4.1-2.6,1.5-4.6,1.5h0Z"/>
  <path class="cls-2" d="M29,13.4c-2.8,0-5,.9-6.7,2.8-1.6,1.8-2.5,4.4-2.5,7.5s.8,5.7,2.5,7.5c1.6,1.9,3.9,2.8,6.7,2.8s5-.9,6.7-2.8c1.6-1.9,2.5-4.4,2.5-7.5s-.8-5.7-2.5-7.5c-1.6-1.8-3.9-2.8-6.7-2.8ZM33.9,29.6c-1.2,1.4-2.8,2.2-4.8,2.2s-3.7-.7-4.8-2.2c-1.2-1.4-1.8-3.4-1.8-6s.6-4.5,1.8-6c1.2-1.4,2.8-2.2,4.8-2.2s3.7.7,4.8,2.2c1.2,1.4,1.8,3.4,1.8,6s-.6,4.5-1.8,6Z"/>
  <path class="cls-2" d="M50.1,15.6c1.5,0,2.7.4,3.8,1.1,1,.8,1.7,1.7,2,2.9h2.5c-.3-1.8-1.2-3.3-2.7-4.5s-3.3-1.8-5.6-1.8-5,.9-6.6,2.8c-1.6,1.9-2.5,4.3-2.5,7.5s.8,5.7,2.5,7.6,3.8,2.8,6.6,2.8,4.1-.6,5.5-1.7,2.3-2.6,2.7-4.4h-2.5c-.3,1.2-1,2.2-2,2.9s-2.3,1-3.8,1-3.6-.7-4.8-2.2-1.8-3.5-1.8-6,.6-4.4,1.8-5.9,2.8-2.2,4.8-2.2h0Z"/>
  <polygon class="cls-2" points="76.7 13.7 73.7 13.7 63.9 23 63.7 23 63.7 5.8 61.2 5.8 61.2 33.7 63.7 33.7 63.7 25.9 65.9 23.8 74 33.7 77.1 33.7 67.8 22.3 76.7 13.7"/>
  <path class="cls-2" d="M87.1,13.4c-2.7,0-4.9.9-6.5,2.8s-2.4,4.4-2.4,7.5.8,5.6,2.4,7.5,3.8,2.8,6.6,2.8,3.9-.5,5.3-1.4c1.5-.9,2.4-2.2,2.9-3.9h-2.5c-.4,1-1.2,1.8-2.1,2.3-1,.5-2.2.8-3.6.8s-3.5-.7-4.7-2-1.8-3.1-1.8-5.4h0c0-.1,15.1-.1,15.1-.1v-1.1c0-3-.8-5.5-2.3-7.2-1.5-1.8-3.6-2.7-6.3-2.7h0ZM80.7,22.3c0-2,.8-3.7,1.9-4.9s2.7-1.9,4.5-1.9,3.3.6,4.4,1.8c1.1,1.2,1.7,2.9,1.7,4.9h-12.5Z"/>
  <path class="cls-2" d="M102.3,8.5h-2.4v5.2h-3.3v2.1h3.3v12.9c0,1.8.4,3.1,1.2,3.9.8.8,2.2,1.2,4.1,1.2s1.2,0,1.7,0v-2.1h-1.4c-1.1,0-1.9-.3-2.4-.8s-.8-1.4-.8-2.7v-12.4h4.6v-2.1h-4.6v-5.2h0Z"/>
  <polygon class="cls-2" points="110.9 33.7 115.1 33.7 115.1 22.6 126.6 22.6 126.6 18.9 115.1 18.9 115.1 10.7 127.7 10.7 127.7 6.9 110.9 6.9 110.9 33.7"/>
  <rect class="cls-2" x="130.2" y="13.5" width="4" height="20.2"/>
  <path class="cls-2" d="M132.2,5.1c-.8,0-1.4.2-1.9.7s-.7,1.1-.7,1.7.2,1.3.7,1.7c.5.5,1.1.7,1.9.7s1.4-.2,1.9-.7.7-1,.7-1.7-.2-1.3-.7-1.7c-.5-.5-1.1-.7-1.9-.7Z"/>
  <path class="cls-2" d="M154.2,15.1c-1.2-1.3-2.9-1.9-5.2-1.9s-5,1.2-6.1,3.6h-.3v-3.2h-3.9v20.2h4v-11.8c0-1.6.4-2.8,1.3-3.7.9-.9,2.1-1.4,3.5-1.4,2.9,0,4.4,1.6,4.4,4.9v12.1h4v-13.1c0-2.4-.6-4.3-1.8-5.6h.1Z"/>
  <text class="cls-1" transform="translate(109 53.5)"><tspan x="0" y="0">Trading</tspan></text>
</svg>