<?xml version="1.0" encoding="UTF-8"?>
<svg id="Layer_1" data-name="Layer 1" xmlns="http://www.w3.org/2000/svg" version="1.1" viewBox="0 0 33.7 34.1">
  <defs>
    <style>
      .cls-1 {
        display: none;
        fill: #000;
      }

      .cls-1, .cls-2 {
        stroke-width: 0px;
      }

      .cls-2 {
        fill: #fff;
      }
    </style>
  </defs>
  <rect class="cls-1" width="33.7" height="34.1"/>
  <g>
    <path class="cls-2" d="M0,17.4l1.8,1.8s3.5-3.9,7.3-.8c.9-1.1,2-2.6,3.6-4.3-1.9.6-6.4-1.4-6.4-1.4L0,17.4h0Z"/>
    <path class="cls-2" d="M6.9,21.5s-.2.9.4,2.2l-2.6,3.5,2.8-1.8-3.5,4.4,4.5-3.3-1.9,2.5,3.7-2.4c1.2.6,2.1.4,2.1.4,0,0,1-.6,2.9-2,3.3,3.8-.7,7.4-.8,7.3l1.8,1.8,4.8-6.2s-2.4-5.1-1.3-6.7c1.4-1.3,3.1-2.8,4.9-4.7C31.4,9.9,33.7,0,33.7,0,33.7,0,23.8,2.3,17.2,8.9c-1.9,1.9-3.5,3.6-4.8,5.1-1.5,1.7-2.7,3.1-3.6,4.3-1.5,2-2.2,3.1-2.2,3.1h.3ZM20.7,9.5c1.1-1.1,2.8-1.1,3.8,0s1.1,2.8,0,3.8-2.8,1.1-3.8,0c-.5-.5-.8-1.2-.8-1.9s.3-1.4.8-1.9h0ZM10.9,19.1l-.7-.2.6-.4v-.8l.6.5.7-.2-.2.7.5.6h-.8l-.4.6-.2-.7h-.1ZM15,21.9l.6.5.7-.2-.2.7.5.6h-.8l-.4.6-.2-.7-.7-.2.6-.4v-.8h-.1ZM14.1,22.5h-1.2l-.7.9-.3-1.1-1.1-.3.9-.7v-1.1l.9.7,1.1-.4-.4,1.1.7.9h.1Z"/>
  </g>
</svg>